<?xml version="1.0" encoding="UTF-8" ?>
<!DOCTYPE svg PUBLIC "-//W3C//DTD SVG 1.1//EN" "http://www.w3.org/Graphics/SVG/1.1/DTD/svg11.dtd">
<svg width="300pt" height="300pt" viewBox="0 0 300 300" version="1.1" xmlns="http://www.w3.org/2000/svg">
<path fill="#ffffff"  fill-opacity="0.0" d=" M 0.00 0.00 L 300.00 0.00 L 300.00 300.00 L 0.00 300.00 L 0.00 0.00 Z" />
<path fill="#4f3663" d=" M 95.38 29.51 C 111.55 22.17 129.37 19.40 146.99 18.60 C 164.61 19.17 182.38 22.11 198.59 29.28 C 221.80 39.53 241.62 56.95 255.74 77.94 C 267.09 95.29 273.84 115.49 275.52 136.14 C 275.94 143.07 275.90 150.02 275.62 156.96 C 275.54 158.08 275.44 159.20 275.33 160.32 C 261.33 147.11 248.04 133.17 234.32 119.67 C 216.17 101.50 198.01 83.35 179.84 65.21 C 176.09 61.51 172.60 57.51 168.38 54.33 L 167.61 53.82 C 163.89 54.86 160.32 56.47 157.11 58.64 C 152.36 54.64 148.81 49.24 143.28 46.21 C 139.42 40.12 134.37 34.88 128.60 30.58 C 126.08 40.37 124.68 51.33 129.28 60.74 C 131.78 66.25 136.43 70.39 141.55 73.43 C 142.32 75.39 143.04 77.37 143.75 79.35 C 137.72 78.79 131.82 77.39 125.91 76.13 C 125.96 83.91 124.37 92.12 119.16 98.16 C 114.54 103.93 107.30 106.31 101.40 110.41 C 83.71 122.40 69.92 140.79 65.42 161.88 C 61.58 180.88 63.24 201.40 72.26 218.75 C 78.01 230.12 86.69 239.75 96.52 247.76 C 98.68 250.81 101.00 253.76 103.83 256.22 C 109.63 261.99 115.53 267.65 121.09 273.65 C 114.40 272.45 107.89 270.46 101.51 268.18 C 75.59 258.49 53.74 239.46 38.52 216.56 C 25.91 197.49 19.51 174.79 18.71 152.03 C 18.04 128.00 23.39 103.52 35.89 82.83 C 49.82 59.70 70.77 40.70 95.38 29.51 Z" />
<path fill="#78af52" d=" M 128.60 30.58 C 134.37 34.88 139.42 40.12 143.28 46.21 C 148.39 55.11 148.94 65.91 146.11 75.65 C 144.59 74.92 143.06 74.19 141.55 73.43 C 136.43 70.39 131.78 66.25 129.28 60.74 C 124.68 51.33 126.08 40.37 128.60 30.58 Z" />
<path fill="#3f2b4f" d=" M 143.28 46.21 C 148.81 49.24 152.36 54.64 157.11 58.64 C 151.82 62.65 149.78 69.35 150.43 75.78 C 154.49 74.44 158.65 72.84 161.59 69.59 C 165.73 65.56 167.19 59.79 168.38 54.33 C 172.60 57.51 176.09 61.51 179.84 65.21 C 198.01 83.35 216.17 101.50 234.32 119.67 C 248.04 133.17 261.33 147.11 275.33 160.32 C 274.09 173.99 270.63 187.47 265.13 200.04 C 253.10 226.51 231.83 248.57 206.23 262.23 C 180.32 275.84 149.65 279.13 121.09 273.65 C 115.53 267.65 109.63 261.99 103.83 256.22 C 101.00 253.76 98.68 250.81 96.52 247.76 C 111.19 259.13 129.76 265.06 148.29 264.73 C 163.39 264.44 178.60 260.54 191.36 252.32 C 209.85 240.47 224.35 221.69 229.05 200.03 C 233.27 180.44 231.19 159.13 221.52 141.40 C 213.17 126.12 200.12 113.44 184.66 105.43 C 179.33 102.72 174.72 98.49 172.17 93.02 C 170.01 88.69 169.40 83.82 168.73 79.08 C 161.95 79.88 155.09 80.73 148.27 79.84 C 146.76 79.69 145.26 79.52 143.75 79.35 C 143.04 77.37 142.32 75.39 141.55 73.43 C 143.06 74.19 144.59 74.92 146.11 75.65 C 148.94 65.91 148.39 55.11 143.28 46.21 Z" />
<path fill="#78af52" d=" M 157.11 58.64 C 160.32 56.47 163.89 54.86 167.61 53.82 L 168.38 54.33 C 167.19 59.79 165.73 65.56 161.59 69.59 C 158.65 72.84 154.49 74.44 150.43 75.78 C 149.78 69.35 151.82 62.65 157.11 58.64 Z" />
<path fill="#f4f3d9" d=" M 125.91 76.13 C 131.82 77.39 137.72 78.79 143.75 79.35 C 145.26 79.52 146.76 79.69 148.27 79.84 C 148.39 99.71 148.15 119.57 148.30 139.43 C 133.98 138.83 119.92 146.02 111.45 157.47 C 99.05 173.54 99.96 198.36 113.72 213.36 C 122.26 223.41 135.25 228.70 148.30 228.91 C 148.12 240.85 148.37 252.79 148.29 264.73 C 129.76 265.06 111.19 259.13 96.52 247.76 C 86.69 239.75 78.01 230.12 72.26 218.75 C 63.24 201.40 61.58 180.88 65.42 161.88 C 69.92 140.79 83.71 122.40 101.40 110.41 C 107.30 106.31 114.54 103.93 119.16 98.16 C 124.37 92.12 125.96 83.91 125.91 76.13 Z" />
<path fill="#f4f3d9" fill-opacity="0.0" d=" M 255.74 77.94 C 256.86 78.51 258.19 78.87 258.98 79.94 C 276.48 104.32 283.51 135.32 280.55 165.01 C 278.59 191.49 267.50 217.09 249.70 236.76 C 234.84 253.66 215.90 267.34 194.41 274.40 C 181.11 279.00 167.01 280.74 153.01 281.30 C 134.49 280.67 115.61 277.74 98.87 269.42 C 99.53 269.11 100.85 268.49 101.51 268.18 C 107.89 270.46 114.40 272.45 121.09 273.65 C 149.65 279.13 180.32 275.84 206.23 262.23 C 231.83 248.57 253.10 226.51 265.13 200.04 C 270.63 187.47 274.09 173.99 275.33 160.32 C 275.44 159.20 275.54 158.08 275.62 156.96 C 275.97 158.09 276.35 159.22 276.74 160.34 C 277.39 151.90 277.20 143.42 276.96 134.97 C 276.60 135.26 275.88 135.85 275.52 136.14 C 273.84 115.49 267.09 95.29 255.74 77.94 Z" />
<path fill="#735a93" d=" M 148.27 79.84 C 155.09 80.73 161.95 79.88 168.73 79.08 C 169.40 83.82 170.01 88.69 172.17 93.02 C 174.72 98.49 179.33 102.72 184.66 105.43 C 200.12 113.44 213.17 126.12 221.52 141.40 C 231.19 159.13 233.27 180.44 229.05 200.03 C 224.35 221.69 209.85 240.47 191.36 252.32 C 178.60 260.54 163.39 264.44 148.29 264.73 C 148.37 252.79 148.12 240.85 148.30 228.91 C 148.34 199.09 148.36 169.25 148.30 139.43 C 148.15 119.57 148.39 99.71 148.27 79.84 Z" />
<path fill="#ffffff" fill-opacity="0.0" d=" M 275.52 136.14 C 275.88 135.85 276.60 135.26 276.96 134.97 C 277.20 143.42 277.39 151.90 276.74 160.34 C 276.35 159.22 275.97 158.09 275.62 156.96 C 275.90 150.02 275.94 143.07 275.52 136.14 Z" />
<path fill="#cbcbb3" d=" M 111.45 157.47 C 119.92 146.02 133.98 138.83 148.30 139.43 C 148.36 169.25 148.34 199.09 148.30 228.91 C 135.25 228.70 122.26 223.41 113.72 213.36 C 99.96 198.36 99.05 173.54 111.45 157.47 Z" />
</svg>
