<?xml version="1.0" encoding="UTF-8" ?>
<!DOCTYPE svg PUBLIC "-//W3C//DTD SVG 1.1//EN" "http://www.w3.org/Graphics/SVG/1.1/DTD/svg11.dtd">
<svg width="300pt" height="300pt" viewBox="0 0 300 300" version="1.1" xmlns="http://www.w3.org/2000/svg">
<path fill="#ffffff" fill-opacity="0.0" d=" M 0.00 0.00 L 300.00 0.00 L 300.00 300.00 L 0.00 300.00 L 0.00 0.00 Z" />
<path fill="#3f3f3f" d=" M 100.60 27.36 C 112.21 22.74 124.59 20.42 137.00 19.33 C 144.33 18.29 151.78 18.44 159.10 19.47 C 178.65 21.03 197.85 27.20 214.46 37.67 C 230.79 48.09 245.06 61.85 255.77 78.02 C 266.79 94.82 273.31 114.31 275.40 134.25 C 275.91 141.44 275.95 148.65 275.64 155.84 C 275.46 159.01 275.14 162.17 274.76 165.32 C 274.33 162.47 274.12 159.25 271.87 157.17 C 240.11 125.59 208.51 93.85 176.83 62.20 C 174.08 59.68 171.91 55.94 167.94 55.33 C 168.01 54.91 168.14 54.07 168.21 53.65 C 164.33 54.76 160.53 56.27 157.20 58.60 C 152.29 54.83 149.03 48.95 143.28 46.34 C 139.53 40.13 134.37 34.93 128.62 30.56 C 126.17 40.09 124.73 50.68 128.93 59.93 C 131.36 65.75 136.11 70.32 141.56 73.37 C 142.11 74.79 142.66 76.22 143.23 77.63 C 142.96 78.03 142.41 78.82 142.14 79.22 C 136.64 78.61 131.28 77.25 125.87 76.16 C 126.03 83.26 124.68 90.63 120.48 96.50 C 117.88 100.20 114.27 103.09 110.31 105.22 C 94.14 113.52 80.57 126.90 72.20 143.03 C 63.10 160.71 61.51 181.64 65.71 200.90 C 69.97 219.61 81.67 236.00 96.63 247.76 C 98.00 249.87 99.37 252.02 101.23 253.74 C 107.83 260.00 114.08 266.62 120.71 272.86 C 120.26 272.94 119.35 273.08 118.90 273.15 C 113.52 272.27 108.39 270.40 103.20 268.80 C 77.87 259.82 56.35 241.82 40.88 220.06 C 22.51 194.20 15.60 161.09 19.90 129.85 C 22.50 107.07 32.06 85.26 46.56 67.56 C 60.91 50.03 79.41 35.60 100.60 27.36 Z" />
<path fill="#9d9d9d" d=" M 128.62 30.56 C 134.37 34.93 139.53 40.13 143.28 46.34 C 148.46 55.15 148.93 65.97 146.10 75.63 C 144.58 74.89 143.05 74.15 141.56 73.37 C 136.11 70.32 131.36 65.75 128.93 59.93 C 124.73 50.68 126.17 40.09 128.62 30.56 Z" />
<path fill="#323232" d=" M 143.28 46.34 C 149.03 48.95 152.29 54.83 157.20 58.60 C 151.93 62.53 149.65 69.24 150.52 75.65 C 160.17 73.78 167.19 64.96 167.94 55.33 C 171.91 55.94 174.08 59.68 176.83 62.20 C 208.51 93.85 240.11 125.59 271.87 157.17 C 274.12 159.25 274.33 162.47 274.76 165.32 C 271.69 189.81 261.12 213.26 244.62 231.64 C 227.01 251.83 203.38 267.12 177.07 272.92 C 158.00 277.08 137.99 277.33 118.90 273.15 C 119.35 273.08 120.26 272.94 120.71 272.86 C 114.08 266.62 107.83 260.00 101.23 253.74 C 99.37 252.02 98.00 249.87 96.63 247.76 C 111.24 259.17 129.81 265.00 148.29 264.72 C 163.87 264.46 179.56 260.26 192.58 251.53 C 210.21 239.79 224.11 221.75 228.84 200.90 C 232.61 184.50 231.78 166.93 225.96 151.11 C 218.41 131.20 202.84 114.73 183.99 105.05 C 178.86 102.40 174.59 98.16 172.13 92.93 C 169.96 88.64 169.43 83.79 168.73 79.10 C 161.94 79.82 155.09 80.78 148.27 79.84 C 146.22 79.63 144.18 79.44 142.14 79.22 C 142.41 78.82 142.96 78.03 143.23 77.63 C 142.66 76.22 142.11 74.79 141.56 73.37 C 143.05 74.15 144.58 74.89 146.10 75.63 C 148.93 65.97 148.46 55.15 143.28 46.34 Z" />
<path fill="#9d9d9d" d=" M 157.20 58.60 C 160.53 56.27 164.33 54.76 168.21 53.65 C 168.14 54.07 168.01 54.91 167.94 55.33 C 167.19 64.96 160.17 73.78 150.52 75.65 C 149.65 69.24 151.93 62.53 157.20 58.60 Z" />
<path fill="#fafafa" d=" M 125.87 76.16 C 131.28 77.25 136.64 78.61 142.14 79.22 C 144.18 79.44 146.22 79.63 148.27 79.84 C 148.32 92.89 148.29 105.94 148.28 119.00 C 116.07 116.87 85.29 144.39 83.33 176.51 C 82.88 180.82 82.84 185.17 83.28 189.48 C 84.08 204.70 91.56 219.10 102.52 229.50 C 114.37 241.49 131.40 248.47 148.28 247.43 C 148.30 253.19 148.29 258.96 148.29 264.72 C 129.81 265.00 111.24 259.17 96.63 247.76 C 81.67 236.00 69.97 219.61 65.71 200.90 C 61.51 181.64 63.10 160.71 72.20 143.03 C 80.57 126.90 94.14 113.52 110.31 105.22 C 114.27 103.09 117.88 100.20 120.48 96.50 C 124.68 90.63 126.03 83.26 125.87 76.16 Z" />
<path fill="#e6e6e6" fill-opacity="0.0" d=" M 255.77 78.02 C 257.30 78.32 258.68 79.05 259.45 80.46 C 270.22 96.02 277.47 114.11 279.86 132.91 C 284.32 163.79 278.29 196.67 260.67 222.72 C 246.45 243.63 226.64 261.08 203.30 271.11 C 187.14 278.06 169.51 280.97 152.01 281.36 C 133.73 280.46 114.87 277.82 98.53 269.11 C 100.08 268.86 101.63 268.75 103.20 268.80 C 108.39 270.40 113.52 272.27 118.90 273.15 C 137.99 277.33 158.00 277.08 177.07 272.92 C 203.38 267.12 227.01 251.83 244.62 231.64 C 261.12 213.26 271.69 189.81 274.76 165.32 C 275.14 162.17 275.46 159.01 275.64 155.84 C 275.89 157.35 276.18 158.86 276.51 160.36 C 277.42 153.61 276.98 146.79 277.07 140.00 C 277.24 137.92 276.35 136.03 275.40 134.25 C 273.31 114.31 266.79 94.82 255.77 78.02 Z" />
<path fill="#636363" d=" M 148.27 79.84 C 155.09 80.78 161.94 79.82 168.73 79.10 C 169.43 83.79 169.96 88.64 172.13 92.93 C 174.59 98.16 178.86 102.40 183.99 105.05 C 202.84 114.73 218.41 131.20 225.96 151.11 C 231.78 166.93 232.61 184.50 228.84 200.90 C 224.11 221.75 210.21 239.79 192.58 251.53 C 179.56 260.26 163.87 264.46 148.29 264.72 C 148.29 258.96 148.30 253.19 148.28 247.43 C 148.29 241.27 148.24 235.12 148.31 228.96 C 148.44 222.96 148.38 216.95 148.38 210.94 C 148.37 193.54 148.38 176.14 148.38 158.74 C 148.38 152.36 148.45 145.97 148.32 139.59 C 148.23 132.73 148.29 125.86 148.28 119.00 C 148.29 105.94 148.32 92.89 148.27 79.84 Z" />
<path fill="#e8e8e8" d=" M 83.33 176.51 C 85.29 144.39 116.07 116.87 148.28 119.00 C 148.29 125.86 148.23 132.73 148.32 139.59 C 124.68 138.08 102.41 159.25 102.92 182.98 C 101.99 198.14 110.22 212.93 122.76 221.19 C 130.18 226.55 139.37 228.28 148.31 228.96 C 148.24 235.12 148.29 241.27 148.28 247.43 C 131.40 248.47 114.37 241.49 102.52 229.50 C 91.56 219.10 84.08 204.70 83.28 189.48 C 84.25 185.20 84.24 180.81 83.33 176.51 Z" />
<path fill="#fefefe" d=" M 275.40 134.25 C 276.35 136.03 277.24 137.92 277.07 140.00 C 276.98 146.79 277.42 153.61 276.51 160.36 C 276.18 158.86 275.89 157.35 275.64 155.84 C 275.95 148.65 275.91 141.44 275.40 134.25 Z" />
<path fill="#cfcfcf" d=" M 102.92 182.98 C 102.41 159.25 124.68 138.08 148.32 139.59 C 148.45 145.97 148.38 152.36 148.38 158.74 C 134.55 157.42 121.82 169.53 121.29 183.16 C 120.50 194.46 128.08 205.48 138.66 209.26 C 141.81 210.25 145.12 210.54 148.38 210.94 C 148.38 216.95 148.44 222.96 148.31 228.96 C 139.37 228.28 130.18 226.55 122.76 221.19 C 110.22 212.93 101.99 198.14 102.92 182.98 Z" />
<path fill="#bdbdbd" d=" M 121.29 183.16 C 121.82 169.53 134.55 157.42 148.38 158.74 C 148.38 176.14 148.37 193.54 148.38 210.94 C 145.12 210.54 141.81 210.25 138.66 209.26 C 128.08 205.48 120.50 194.46 121.29 183.16 Z" />
<path fill="#d5d5d5" d=" M 83.33 176.51 C 84.24 180.81 84.25 185.20 83.28 189.48 C 82.84 185.17 82.88 180.82 83.33 176.51 Z" />
</svg>
